<?xml version="1.0" encoding="iso-8859-1"?>
<!-- Generator: Adobe Illustrator 18.1.1, SVG Export Plug-In . SVG Version: 6.00 Build 0)  -->
<svg xmlns="http://www.w3.org/2000/svg" xmlns:xlink="http://www.w3.org/1999/xlink" version="1.1" id="Capa_1" x="0px" y="0px" viewBox="0 0 60.258 60.258" style="enable-background:new 0 0 60.258 60.258;" xml:space="preserve" width="512px" height="512px">
<g>
	<g>
		<path d="M26.261,7.69c0.205,0,0.403-0.022,0.596-0.061c0.065-0.013,0.125-0.037,0.188-0.053    c0.126-0.034,0.251-0.067,0.37-0.115c0.071-0.028,0.135-0.066,0.204-0.1c0.104-0.052,0.206-0.104,0.304-0.166    c0.066-0.044,0.128-0.093,0.192-0.142c0.088-0.066,0.173-0.134,0.255-0.209c0.059-0.056,0.113-0.117,0.168-0.178    c0.072-0.079,0.143-0.161,0.207-0.25c0.048-0.066,0.093-0.135,0.137-0.207c0.056-0.092,0.106-0.186,0.154-0.284    c0.037-0.076,0.07-0.153,0.101-0.232c0.038-0.101,0.069-0.206,0.097-0.313c0.021-0.083,0.043-0.166,0.059-0.251    c0.005-0.036,0.02-0.069,0.024-0.106h1.293c0.006,0.037,0.018,0.07,0.025,0.106c0.015,0.086,0.035,0.169,0.058,0.251    c0.027,0.107,0.06,0.211,0.099,0.313c0.028,0.08,0.063,0.156,0.101,0.232c0.047,0.098,0.098,0.192,0.153,0.284    c0.045,0.071,0.089,0.14,0.14,0.207c0.063,0.089,0.133,0.17,0.205,0.25c0.055,0.061,0.108,0.122,0.17,0.178    c0.08,0.075,0.166,0.143,0.254,0.209c0.062,0.048,0.125,0.098,0.19,0.142c0.099,0.062,0.199,0.114,0.306,0.166    c0.066,0.033,0.131,0.071,0.202,0.1c0.118,0.048,0.243,0.082,0.369,0.115c0.063,0.017,0.123,0.04,0.188,0.053    c0.192,0.039,0.394,0.061,0.598,0.061c1.699,0,3.082-1.384,3.082-3.083c0-1.634-1.258-2.976-2.889-3.062    c-0.065-0.005-0.129-0.02-0.193-0.02c-0.01,0-0.02,0.002-0.027,0.002c-0.009,0.001-0.017-0.001-0.025-0.001l-7.067-0.001    l-0.13,0.009c-0.05-0.005-0.099-0.009-0.149-0.009c-1.7,0-3.082,1.382-3.082,3.082C23.179,6.306,24.561,7.69,26.261,7.69z     M33.171,2.419l0.096-0.018c0.129-0.024,0.26-0.041,0.396-0.041c1.236,0,2.244,1.009,2.244,2.246c0,1.239-1.008,2.247-2.244,2.247    c-1.239,0-2.247-1.008-2.247-2.247C31.415,3.538,32.169,2.645,33.171,2.419z M31.566,2.361c-0.506,0.472-0.845,1.11-0.942,1.829    h-1.32c-0.099-0.719-0.438-1.357-0.943-1.829H31.566z M26.261,2.361c1.239,0,2.247,1.009,2.247,2.246    c0,1.239-1.008,2.247-2.247,2.247c-1.238,0-2.247-1.008-2.247-2.247C24.014,3.369,25.023,2.361,26.261,2.361z" fill="#faf0ca"/>
		<path d="M32.892,8.323c-0.195-0.054-0.336-0.093-0.472-0.147c-0.06-0.024-0.116-0.054-0.173-0.084    c-0.176-0.087-0.293-0.146-0.402-0.216c-0.062-0.042-0.117-0.084-0.176-0.127c-0.143-0.109-0.238-0.185-0.33-0.27    c-0.07-0.068-0.131-0.135-0.193-0.203c-0.082-0.09-0.16-0.184-0.231-0.285c-0.058-0.075-0.104-0.152-0.155-0.232    c-0.064-0.106-0.124-0.213-0.177-0.325c-0.04-0.086-0.08-0.172-0.114-0.262c-0.045-0.119-0.079-0.236-0.111-0.356    c-0.003-0.016-0.007-0.031-0.012-0.045h-0.628c-0.004,0.015-0.008,0.031-0.013,0.046c-0.031,0.119-0.065,0.236-0.11,0.353    c-0.034,0.092-0.073,0.178-0.112,0.264c-0.055,0.113-0.113,0.219-0.176,0.323c-0.05,0.08-0.101,0.159-0.158,0.234    c-0.072,0.101-0.151,0.194-0.233,0.285c-0.062,0.068-0.123,0.135-0.189,0.198c-0.095,0.09-0.191,0.166-0.29,0.242    c-0.102,0.077-0.159,0.119-0.218,0.158c-0.111,0.071-0.228,0.13-0.345,0.19c-0.118,0.061-0.175,0.089-0.234,0.112    c-0.133,0.054-0.275,0.093-0.418,0.132c-0.108,0.032-0.16,0.048-0.214,0.059c-0.651,0.131-1.281,0.07-1.847-0.132    c0.814,1.886,2.687,3.206,4.872,3.206c2.189,0,4.07-1.328,4.878-3.224c-0.369,0.133-0.764,0.218-1.18,0.218    c-0.222,0-0.449-0.022-0.679-0.068C32.998,8.355,32.944,8.339,32.892,8.323z" fill="#faf0ca"/>
		<path d="M30.032,0c-0.883,0-1.711,0.218-2.443,0.599h4.885C31.743,0.219,30.914,0,30.032,0z" fill="#faf0ca"/>
		<path d="M46.637,5.248l-7.943-2.981c0,0-1.594-0.586-2.582-0.291c0.688,0.638,1.119,1.537,1.119,2.541    c0,0.761-0.252,1.459-0.664,2.035l2.769,1.609c-2.438,1.72-4.442,2.725-6.185,4.384c-2.224,1.763-3.023,6.805-3.023,6.805    c-0.592-3.552-2.979-6.765-2.979-6.765c-1.724-1.656-4.19-3.108-6.646-4.842L23.42,6.45c-0.369-0.556-0.59-1.22-0.59-1.933    c0-1.026,0.453-1.943,1.16-2.583c-0.506-0.269-2.428,0.333-2.428,0.333l-7.94,2.981c-0.485,0.538-0.712,1.258-0.626,1.978    c0.087,0.718,0.479,1.364,1.078,1.771c1.646,1.122,5.716,3.976,8.207,5.998l0.097,1.387L22.325,36.85v20.375    c0,1.676,1.227,3.033,2.949,3.033c1.723,0,3.118-1.357,3.118-3.033V35.996c0,0,0.101-1.076,1.198-1.088    c1.097-0.014,1.067,1.033,1.067,1.033v21.225c0,1.676,1.396,3.033,3.119,3.033c1.724,0,3.117-1.357,3.117-3.033l0.104-21.9    c0-0.208,0.025-19.323,0.025-19.323s-0.012-0.029-0.027-0.118c2.229-1.976,7.303-5.54,9.189-6.828    c0.6-0.407,0.992-1.053,1.078-1.771C47.349,6.507,47.119,5.786,46.637,5.248z" fill="#faf0ca"/>
		<path d="M33.151,12.545l-6.002,0.04C28.959,13.235,31.058,13.46,33.151,12.545z" fill="#faf0ca"/>
	</g>
</g>
<g>
</g>
<g>
</g>
<g>
</g>
<g>
</g>
<g>
</g>
<g>
</g>
<g>
</g>
<g>
</g>
<g>
</g>
<g>
</g>
<g>
</g>
<g>
</g>
<g>
</g>
<g>
</g>
<g>
</g>
</svg>
