<?xml version="1.0" encoding="iso-8859-1"?>
<!-- Generator: Adobe Illustrator 19.0.0, SVG Export Plug-In . SVG Version: 6.00 Build 0)  -->
<svg xmlns="http://www.w3.org/2000/svg" xmlns:xlink="http://www.w3.org/1999/xlink" version="1.1" id="Layer_1" x="0px" y="0px" viewBox="0 0 512 512" style="enable-background:new 0 0 512 512;" xml:space="preserve" width="512px" height="512px">
<g>
	<g>
		<path d="M448.788,290.234c-5.668-32.695-22.061-62.635-46.863-85.204C374.266,179.861,338.424,166,301,166    c-12.987,0-25.71,1.635-37.966,4.821c-3.375-8.198-7.724-15.819-12.896-22.747l32.534-32.534c5.858-5.858,5.858-15.355,0-21.213    c-5.857-5.858-15.355-5.858-21.213,0l-32.531,32.531c-13.828-10.331-30.226-17.255-47.929-19.778V61c0-8.284-6.716-15-15-15    s-15,6.716-15,15v46.076c-17.763,2.552-34.106,9.56-47.849,19.862l-32.61-32.61c-5.857-5.858-15.355-5.858-21.213,0    c-5.858,5.858-5.858,15.355,0,21.213l32.61,32.61C71.636,161.894,64.628,178.237,62.076,196H15c-8.284,0-15,6.716-15,15    s6.716,15,15,15h47.096c2.406,16.528,8.739,32.294,18.389,45.885C50.066,290.894,31,324.601,31,361c0,57.897,47.103,105,105,105    h285c49.744,0,91-40.232,91-90C512,336.928,486.943,302.374,448.788,290.234z M166,136c30.936,0,57.473,18.619,68.906,45.287    c-8.566,4.222-16.777,9.288-24.54,15.182c-21.322,16.19-38.077,38.091-48.208,62.714c-17.456-4.228-35.523-4.358-53.306,0.385    C97.292,246.043,91,229.091,91,211C91,169.645,124.645,136,166,136z M421,436H136c-41.355,0-75-33.645-75-75    c0-59.753,71.151-105.811,137.424-49.499c6.313,5.365,15.779,4.595,21.144-1.718c5.364-6.313,4.595-15.779-1.718-21.144    c-8.909-7.57-18.133-13.846-27.619-18.81C208.659,225.792,252.494,196,301,196c55.766,0,102.946,37.641,116.259,90.065    c-27.24,1.223-54.631,14.549-77.758,38.773c-5.72,5.992-5.5,15.487,0.492,21.208c5.992,5.719,15.486,5.501,21.208-0.492    C417.003,287.102,482,324.933,482,376C482,409.084,454.636,436,421,436z" fill="#faf0ca"/>
	</g>
</g>
<g>
</g>
<g>
</g>
<g>
</g>
<g>
</g>
<g>
</g>
<g>
</g>
<g>
</g>
<g>
</g>
<g>
</g>
<g>
</g>
<g>
</g>
<g>
</g>
<g>
</g>
<g>
</g>
<g>
</g>
</svg>
